PathFileType	4	(X/Y/Z)	G:\GRF\jawan data\CompiledGRF\03. Mohit Kumar\0231~ac~Walking 08_markers.trc
DataRate	CameraRate	NumFrames	NumMarkers	Units	OrigDataRate	OrigDataStartFrame	OrigNumFrames
100.000000	100.000000	8	18	mm	100.000000	766	876
Frame#	Time	c7			r should			l should			sacrum			r asis			r bar 1			r knee 1			r bar 2			r mall			r heel			r met			l asis			l bar 1			l knee 1			l bar 2			l mall			l heel			l met			
		X1	Y1	Z1	X2	Y2	Z2	X3	Y3	Z3	X4	Y4	Z4	X5	Y5	Z5	X6	Y6	Z6	X7	Y7	Z7	X8	Y8	Z8	X9	Y9	Z9	X10	Y10	Z10	X11	Y11	Z11	X12	Y12	Z12	X13	Y13	Z13	X14	Y14	Z14	X15	Y15	Z15	X16	Y16	Z16	X17	Y17	Z17	X18	Y18	Z18	

767	7.66	2671.413330078125	1500.475708007813	259.9184875488281	2720.157470703125	1454.805541992188	419.9827880859375	2707.80712890625	1466.340454101563	97.81781005859375	2548.634521484375	1047.075805664063	250.9037780761719	2731.87744140625	1009.202270507813	370.4544372558594	2662.04931640625	592.9458618164063	422.6522521972656	2677.865966796875	511.0157775878906	367.8186645507813	2604.02783203125	187.2009582519531	373.6208801269531	2610.997314453125	68.19316101074219	307.7227172851563	2544.64697265625	33.25674819946289	258.6091613769531	nan	nan	nan	2719.556884765625	1016.3212890625	124.8109741210938	2781.891357421875	611.1982421875	28.00815582275391	2814.9775390625	521.2822875976563	75.50735473632813	2619.572998046875	316.851806640625	37.0291862487793	2517.29833984375	173.9577178955078	106.6819763183594	2447.66552734375	172.7926483154297	164.1904449462891	2615.60302734375	73.82338714599609	125.6701507568359	
768	7.67	2678.19384765625	1500.823852539063	260.5572509765625	2729.518798828125	1454.907958984375	420.3659973144531	2716.498779296875	1466.008056640625	98.14647674560547	2558.925048828125	1046.726440429688	251.0049285888672	2739.812744140625	1008.607177734375	371.3288269042969	2664.67333984375	592.9560546875	422.7717590332031	2679.939697265625	510.9339904785156	367.9527893066406	2603.70458984375	187.2622680664063	373.0906066894531	2611.009521484375	68.14462280273438	307.7210083007813	2544.697021484375	33.57297897338867	258.3896484375	nan	nan	nan	2728.432373046875	1016.564819335938	125.5603561401367	2797.6962890625	613.7053833007813	28.13607215881348	2830.9189453125	524.0200805664063	76.12950897216797	2642.835693359375	311.3829345703125	36.93861389160156	2545.618408203125	165.9195556640625	106.6401748657227	2474.881103515625	160.8594512939453	164.4468536376953	2648.66259765625	70.62400817871094	125.1841201782227	
769	7.68	2685.3955078125	1500.734497070313	260.8408813476563	2738.673828125	1454.625366210938	420.8697509765625	2725.238037109375	1465.504516601563	98.48201751708984	2566.693359375	1046.393920898438	250.8952941894531	2747.716064453125	1007.857299804688	372.0347900390625	2667.57373046875	592.9915771484375	422.8601379394531	2682.0087890625	510.7708435058594	368.0642700195313	2603.765380859375	187.5490570068359	372.6728820800781	2611.0302734375	68.17127227783203	307.593017578125	2544.638671875	33.66735076904297	258.2049865722656	nan	nan	nan	2737.042724609375	1016.562927246094	126.1514587402344	2812.619873046875	615.9265747070313	28.47460556030273	2846.188720703125	526.614990234375	76.78095245361328	2666.183837890625	305.7593078613281	36.88940811157227	2574.39697265625	157.5797424316406	106.6207580566406	2504.8203125	149.3208923339844	164.5635070800781	2682.109130859375	67.48384857177734	124.4221572875977	
770	7.69	2693.9853515625	1500.214111328125	261.1952514648438	2747.790283203125	1454.079345703125	421.4021911621094	2734.0283203125	1464.841796875	98.7481689453125	2572.955322265625	1046.375	250.7265777587891	2755.660400390625	1006.986511230469	372.5650939941406	2670.3515625	592.8161010742188	422.8778686523438	2684.20849609375	510.6063537597656	368.2239685058594	2603.632568359375	187.6861419677734	372.3929748535156	nan	nan	nan	2544.761474609375	33.89668273925781	258.0870361328125	2755.52001953125	24.50287246704102	306.12353515625	2745.524658203125	1016.42822265625	126.5772857666016	2826.435546875	617.8228759765625	28.84307479858398	2860.725830078125	529.1346435546875	77.416259765625	2690.042236328125	300.5025024414063	36.80325317382813	2604.52880859375	148.8161315917969	106.1323013305664	2534.58447265625	136.6613464355469	164.8742828369141	2715.855712890625	64.48966979980469	123.4483947753906	
771	7.7	2702.053955078125	1499.588989257813	261.5110168457031	2756.46875	1453.49609375	421.5337219238281	2742.63720703125	1464.014526367188	99.14171600341797	2582.611572265625	1045.780639648438	250.9041442871094	2763.78564453125	1006.070129394531	372.9297790527344	2673.638427734375	593.2255859375	422.9443664550781	2686.351318359375	510.3912353515625	368.32275390625	2603.744140625	187.8391418457031	372.2631530761719	nan	nan	nan	2545.5712890625	33.81864166259766	258.1969604492188	2755.438720703125	24.40750312805176	306.0558166503906	2753.920654296875	1016.190551757813	126.8608551025391	2839.133544921875	619.3942260742188	29.2647876739502	2874.4599609375	531.469482421875	78.03350067138672	2713.902587890625	295.5324096679688	36.70037460327148	2635.501953125	140.01416015625	105.4891204833984	2563.159912109375	123.7386779785156	165.0411071777344	nan	nan	nan	
772	7.71	2712.609375	1498.605590820313	261.9669189453125	2765.55029296875	1452.7861328125	421.7403259277344	2751.3681640625	1463.116333007813	99.40174102783203	2590.43896484375	1045.287963867188	251.0764312744141	2771.960205078125	1005.083801269531	373.1445617675781	2677.244384765625	594.20947265625	423.0200500488281	2687.709716796875	509.4792785644531	368.0197143554688	2604.320556640625	188.1683197021484	371.9623718261719	nan	nan	nan	2546.507568359375	32.83610153198242	258.506591796875	nan	nan	nan	2762.212890625	1015.825378417969	127.0384521484375	2850.046875	620.0167236328125	29.63887786865234	2887.256591796875	533.4635620117188	78.64817810058594	2737.071533203125	290.5233764648438	36.61747360229492	2665.395751953125	132.11181640625	105.0805740356445	2586.356201171875	116.6087646484375	165.0661010742188	nan	nan	nan	
773	7.72	2723.374755859375	1497.644165039063	262.1726379394531	2774.623779296875	1451.911865234375	421.93798828125	2759.74365234375	1461.954711914063	99.72771453857422	2600.897705078125	1044.464965820313	251.4867553710938	2780.167236328125	1004.010681152344	373.2467041015625	2681.011474609375	594.2889404296875	423.1268615722656	2688.07861328125	507.5697937011719	367.2083129882813	2605.170166015625	188.4971313476563	371.8260498046875	nan	nan	nan	2546.89697265625	33.0447998046875	258.4823913574219	nan	nan	nan	2770.42138671875	1015.328857421875	127.2061462402344	2860.00830078125	620.4389038085938	30.06995964050293	2899.29931640625	535.0521850585938	79.33342742919922	2760.04443359375	285.9171752929688	36.34618759155273	2695.958251953125	123.9912643432617	104.3797378540039	nan	nan	nan	nan	nan	nan	
774	7.73	2731.49609375	1497.003662109375	262.3786315917969	2783.733154296875	1450.91162109375	422.1231689453125	2767.830322265625	1460.659423828125	100.1064224243164	2608.2880859375	1043.765869140625	251.6245574951172	2788.5927734375	1002.935913085938	373.308349609375	2685.046142578125	594.1337890625	423.2293090820313	2690.24755859375	506.9444274902344	366.9539489746094	2606.017578125	188.7396545410156	371.9403686523438	nan	nan	nan	2546.93896484375	33.24129867553711	258.2916259765625	nan	nan	nan	2778.5185546875	1014.700866699219	127.3613891601563	2868.6015625	620.1087036132813	30.72474479675293	2910.628173828125	536.2565307617188	80.11833190917969	2782.88916015625	281.69970703125	36.01066589355469	2727.404541015625	116.375129699707	103.643684387207	2667.984375	95.95967864990234	166.5916137695313	nan	nan	nan	
